<?xml version="1.0" encoding="iso-8859-1"?>
<!-- Generator: Adobe Illustrator 18.1.1, SVG Export Plug-In . SVG Version: 6.00 Build 0)  -->
<!DOCTYPE svg PUBLIC "-//W3C//DTD SVG 1.1//EN" "http://www.w3.org/Graphics/SVG/1.1/DTD/svg11.dtd">
<svg version="1.1" id="Layer_1" xmlns="http://www.w3.org/2000/svg" xmlns:xlink="http://www.w3.org/1999/xlink" x="0px" y="0px"
	 viewBox="0 0 300 300" style="enable-background:new 0 0 300 300;" xml:space="preserve">
<g>
	<path style="fill:#3F51B5;" d="M262.26,173.61v40.72c0,3.7-1.97,7.13-5.18,8.98l-101.89,58.83c-3.21,1.85-7.17,1.85-10.38,0
		L42.92,223.31c-3.21-1.85-5.18-5.28-5.18-8.98v-65.76L262.26,173.61z"/>
	<g>
		<g>
			<g>
				<path style="fill:#5C6BC0;" d="M262.26,173.61v40.72c0,3.7-1.97,7.13-5.18,8.98l-9.35,5.4L81.57,245.63l-38.65-22.32
					c-3.21-1.85-5.18-5.28-5.18-8.98v-65.76L262.26,173.61z"/>
			</g>
			<path style="fill:none;" d="M262.26,173.61v40.72c0,3.7-1.97,7.13-5.18,8.98l-9.35,5.4l-92.54,53.43
				c-3.21,1.85-7.17,1.85-10.38,0l-63.24-36.51l-38.65-22.32c-3.21-1.85-5.18-5.28-5.18-8.98v-65.76L262.26,173.61z"/>
			<g>
				<path style="fill:#EEEEEE;" d="M262.26,85.67v87.94L37.74,148.57v-62.9c0-3.7,1.97-7.13,5.18-8.98l101.89-58.83
					c3.21-1.85,7.17-1.85,10.38,0l101.89,58.83C260.29,78.54,262.26,81.97,262.26,85.67z"/>
			</g>
		</g>
	</g>
	<g>
		<path style="fill:#616161;" d="M216.975,147.314h-6.609v-1.147l3.24-3.528c0.528-0.578,0.893-1.054,1.094-1.425
			c0.2-0.372,0.301-0.735,0.301-1.091c0-0.446-0.131-0.82-0.391-1.121s-0.61-0.451-1.053-0.451c-0.583,0-1.016,0.164-1.299,0.492
			c-0.282,0.328-0.424,0.779-0.424,1.354h-1.605l-0.014-0.041c-0.023-0.884,0.266-1.628,0.867-2.231
			c0.602-0.604,1.427-0.906,2.475-0.906c0.957,0,1.714,0.265,2.27,0.793c0.557,0.529,0.834,1.22,0.834,2.071
			c0,0.57-0.16,1.114-0.481,1.634s-0.819,1.151-1.493,1.894l-2.215,2.331l0.02,0.041h4.484V147.314z"/>
		<path style="fill:#616161;" d="M224.115,143.479c0,1.295-0.291,2.281-0.875,2.96c-0.583,0.68-1.376,1.019-2.379,1.019
			c-1.007,0-1.805-0.339-2.393-1.019c-0.588-0.679-0.881-1.665-0.881-2.96v-2.276c0-1.289,0.291-2.276,0.875-2.96
			c0.583-0.684,1.378-1.025,2.385-1.025c1.003,0,1.799,0.342,2.387,1.025s0.881,1.671,0.881,2.96V143.479z M222.455,140.948
			c0-0.814-0.137-1.418-0.41-1.81s-0.673-0.588-1.197-0.588c-0.523,0-0.922,0.196-1.192,0.588s-0.407,0.995-0.407,1.81v2.766
			c0,0.82,0.139,1.427,0.414,1.82c0.275,0.395,0.676,0.591,1.199,0.591c0.524,0,0.921-0.195,1.189-0.587
			c0.27-0.392,0.404-1,0.404-1.824V140.948z"/>
		<path style="fill:#616161;" d="M229.042,147.314h-1.661v-8.374h-2.023v-1.224l3.685-0.355V147.314z"/>
		<path style="fill:#616161;" d="M231.758,142.864l0.574-5.503h5.256v1.436h-3.875l-0.301,2.495c0.195-0.146,0.422-0.266,0.68-0.358
			c0.258-0.094,0.548-0.145,0.871-0.154c0.935-0.009,1.666,0.287,2.195,0.889c0.528,0.602,0.793,1.425,0.793,2.468
			c0,0.976-0.278,1.773-0.834,2.393c-0.557,0.62-1.361,0.93-2.414,0.93c-0.875,0-1.613-0.24-2.218-0.721
			c-0.604-0.481-0.895-1.163-0.872-2.048l0.014-0.034l1.553-0.055c0,0.481,0.141,0.855,0.424,1.123
			c0.282,0.268,0.648,0.401,1.1,0.401c0.516,0,0.908-0.181,1.18-0.543s0.406-0.842,0.406-1.439c0-0.602-0.139-1.09-0.416-1.466
			c-0.278-0.376-0.675-0.564-1.189-0.564c-0.456,0-0.795,0.075-1.016,0.225s-0.382,0.363-0.482,0.644L231.758,142.864z"/>
	</g>
	<linearGradient id="SVGID_1_" gradientUnits="userSpaceOnUse" x1="149.4201" y1="167.7185" x2="150.1102" y2="159.8298">
		<stop  offset="0.2" style="stop-color:#000000;stop-opacity:0"/>
		<stop  offset="0.9953" style="stop-color:#000000;stop-opacity:0.4"/>
	</linearGradient>
	<polygon style="opacity:0.6;fill:url(#SVGID_1_);" points="37.74,148.57 37.74,158.132 262.26,173.61 	"/>
	<linearGradient id="SVGID_2_" gradientUnits="userSpaceOnUse" x1="165.5857" y1="243.7938" x2="164.4205" y2="235.5027">
		<stop  offset="0.3" style="stop-color:#000000;stop-opacity:0"/>
		<stop  offset="1" style="stop-color:#000000;stop-opacity:0.4"/>
	</linearGradient>
	<polygon style="opacity:0.6;fill:url(#SVGID_2_);" points="81.575,245.626 95.742,253.806 247.734,228.705 	"/>
	<g>
		<g>
			<g>
				<g>
					<defs>
						<path id="SVGID_11_" d="M61.28,85.564l13.274,21.721L61.28,129.007H73.95l12.177-19.896c0.324-0.528,0.494-1.16,0.494-1.825
							c0-0.666-0.17-1.297-0.494-1.825L73.95,85.564H61.28z M95.654,98.057l-12.177,19.896c-0.323,0.528-0.493,1.16-0.493,1.825
							c0,0.666,0.17,1.297,0.493,1.825L95.654,141.5h12.671L95.05,119.779l13.274-21.721H95.654z"/>
					</defs>
					<clipPath id="SVGID_3_">
						<use xlink:href="#SVGID_11_"  style="overflow:visible;"/>
					</clipPath>
					<polygon style="clip-path:url(#SVGID_3_);fill:#DB4437;" points="61.28,85.564 73.95,85.564 80.894,96.91 80.894,107.285 
						74.554,107.285 					"/>
					<polygon style="clip-path:url(#SVGID_3_);fill:#FFCD40;" points="108.325,141.5 95.654,141.5 88.71,130.154 95.05,119.779 
											"/>
					<path style="clip-path:url(#SVGID_3_);fill:#0F9D58;" d="M88.71,130.154l-5.234-8.55c-0.323-0.528-0.493-1.16-0.493-1.825
						c0-0.666,0.169-1.297,0.493-1.825l12.178-19.896h12.671L88.71,130.154z"/>
				</g>
				<g>
					<defs>
						<path id="SVGID_13_" d="M61.28,85.564l13.274,21.721L61.28,129.007H73.95l12.177-19.896c0.324-0.528,0.494-1.16,0.494-1.825
							c0-0.666-0.17-1.297-0.494-1.825L73.95,85.564H61.28z M95.654,98.057l-12.177,19.896c-0.323,0.528-0.493,1.16-0.493,1.825
							c0,0.666,0.17,1.297,0.493,1.825L95.654,141.5h12.671L95.05,119.779l13.274-21.721H95.654z"/>
					</defs>
					<clipPath id="SVGID_4_">
						<use xlink:href="#SVGID_13_"  style="overflow:visible;"/>
					</clipPath>
					<path style="clip-path:url(#SVGID_4_);fill:#4285F4;" d="M74.554,107.285l6.341-10.375l5.234,8.55
						c0.322,0.528,0.493,1.16,0.493,1.825c0,0.666-0.17,1.297-0.493,1.825L73.95,129.007H61.28L74.554,107.285z"/>
					<g style="opacity:0.2;clip-path:url(#SVGID_4_);">
						<g>
							<polygon style="fill:#FFFFFF;" points="61.648,85.865 61.28,85.564 73.95,85.564 80.895,96.91 80.802,97.061 73.95,85.865 
															"/>
						</g>
					</g>
					<g style="opacity:0.2;clip-path:url(#SVGID_4_);">
						<g>
							<polygon style="fill:#3E2723;" points="74.646,107.134 74.554,107.285 61.28,85.564 61.648,85.865 							"/>
						</g>
					</g>
					<g style="opacity:0.1;clip-path:url(#SVGID_4_);">
						<g>
							<polygon style="fill:#3E2723;" points="80.802,97.06 74.554,107.285 74.461,107.134 80.71,96.909 							"/>
						</g>
					</g>
					<g style="opacity:0.2;clip-path:url(#SVGID_4_);">
						<g>
							<path style="fill:#FFFFFF;" d="M83.477,118.255c-0.299,0.488-0.46,1.065-0.484,1.675c-0.002-0.051-0.009-0.1-0.009-0.151
								c0-0.666,0.17-1.297,0.493-1.825l12.178-19.896h12.671l-0.369,0.302H95.654L83.477,118.255z"/>
						</g>
					</g>
					<g style="opacity:0.2;clip-path:url(#SVGID_4_);">
						<g>
							<polygon style="fill:#263238;" points="107.956,98.359 108.325,98.057 95.05,119.779 88.71,130.154 88.617,130.004 
								93.593,121.862 							"/>
						</g>
					</g>
					<g style="opacity:0.15;clip-path:url(#SVGID_4_);">
						<g>
							<polygon style="fill:#3E2723;" points="107.956,141.198 108.325,141.5 95.654,141.5 88.71,130.154 88.802,130.004 
								95.654,141.198 							"/>
						</g>
					</g>
					<g style="opacity:0.2;clip-path:url(#SVGID_4_);">
						<g>
							<polygon style="fill:#FFFFFF;" points="94.958,119.929 95.051,119.779 108.325,141.5 107.956,141.198 							"/>
						</g>
					</g>
					<g style="opacity:0.2;clip-path:url(#SVGID_4_);">
						<g>
							<path style="fill:#263238;" d="M86.128,108.809c0.299-0.487,0.46-1.065,0.483-1.675c0.003,0.051,0.01,0.1,0.01,0.151
								c0,0.666-0.17,1.297-0.493,1.825L73.95,129.007H61.28l0.369-0.302H73.95L86.128,108.809z"/>
						</g>
					</g>
					<g style="opacity:0.2;clip-path:url(#SVGID_4_);">
						<g>
							<path style="fill:#FFFFFF;" d="M80.894,97.211l-6.341,10.376l-12.905,21.118l-0.369,0.302l13.274-21.721l6.341-10.376
								l5.234,8.55c0.323,0.528,0.493,1.16,0.493,1.825c0,0.051-0.007,0.1-0.009,0.151c-0.024-0.609-0.186-1.187-0.484-1.675
								L80.894,97.211z"/>
						</g>
					</g>
				</g>
				<g>
					<defs>
						<path id="SVGID_15_" d="M95.654,98.057l-12.177,19.896c-0.323,0.528-0.493,1.16-0.493,1.825c0,0.666,0.17,1.297,0.493,1.825
							L95.654,141.5h12.671L95.05,119.779l13.274-21.721H95.654z"/>
					</defs>
					<clipPath id="SVGID_5_">
						<use xlink:href="#SVGID_15_"  style="overflow:visible;"/>
					</clipPath>
				</g>
			</g>
			<line style="fill:none;" x1="86.127" y1="105.46" x2="73.95" y2="85.564"/>
			<g>
				<g>
					<path style="fill:#616161;" d="M134.426,117.017h-11.859v9.245h13.672v2.756h-17.174v-25.885h16.979v2.756h-13.477v8.374
						h11.859V117.017z"/>
					<path style="fill:#616161;" d="M147.082,116.875l4.089-7.093h4.089l-6.24,9.511l6.418,9.725h-4.018l-4.267-7.271l-4.267,7.271
						h-4.053l6.418-9.725l-6.241-9.511h4.036L147.082,116.875z"/>
					<path style="fill:#616161;" d="M175.443,120.129c0,2.773-0.663,5.011-1.991,6.712c-1.327,1.701-3.159,2.551-5.493,2.551
						c-1.185,0-2.225-0.199-3.12-0.595c-0.895-0.397-1.656-0.993-2.284-1.787v9.404h-3.502v-26.632h2.684l0.551,2.489
						c0.629-0.924,1.411-1.63,2.347-2.116c0.937-0.486,2.027-0.729,3.271-0.729c2.383,0,4.235,0.945,5.556,2.836
						c1.321,1.891,1.982,4.388,1.982,7.494V120.129z M171.941,119.746c0-2.178-0.43-3.969-1.289-5.371
						c-0.859-1.403-2.125-2.104-3.796-2.104c-1.008,0-1.867,0.228-2.578,0.684c-0.711,0.456-1.286,1.08-1.724,1.873v9.287
						c0.438,0.793,1.013,1.412,1.724,1.855c0.711,0.444,1.583,0.666,2.614,0.666c1.659,0,2.916-0.606,3.769-1.82
						c0.853-1.214,1.28-2.779,1.28-4.696V119.746z"/>
					<path style="fill:#616161;" d="M187.223,129.391c-2.679,0-4.809-0.892-6.392-2.675c-1.582-1.783-2.373-4.098-2.373-6.942
						v-0.782c0-2.738,0.814-5.016,2.444-6.836s3.558-2.729,5.787-2.729c2.596,0,4.557,0.782,5.884,2.347
						c1.328,1.565,1.991,3.65,1.991,6.258v2.186h-12.48l-0.054,0.089c0.036,1.844,0.504,3.36,1.405,4.547
						c0.9,1.188,2.162,1.782,3.786,1.782c1.185,0,2.225-0.169,3.12-0.507c0.894-0.338,1.668-0.803,2.32-1.395l1.369,2.278
						c-0.688,0.68-1.595,1.246-2.72,1.7C190.186,129.165,188.823,129.391,187.223,129.391z M186.69,112.182
						c-1.173,0-2.175,0.493-3.005,1.48c-0.829,0.986-1.339,2.223-1.528,3.712l0.035,0.089h8.872v-0.461
						c0-1.37-0.368-2.516-1.102-3.437C189.226,112.643,188.136,112.182,186.69,112.182z"/>
					<path style="fill:#616161;" d="M207.779,112.875l-1.796-0.107c-0.924,0-1.704,0.219-2.338,0.658
						c-0.634,0.439-1.123,1.055-1.467,1.849v13.743h-3.502v-19.236h3.129l0.337,2.809c0.545-0.996,1.218-1.772,2.018-2.329
						c0.8-0.557,1.721-0.836,2.765-0.836c0.26,0,0.509,0.021,0.746,0.062c0.237,0.042,0.433,0.086,0.587,0.133L207.779,112.875z"/>
					<path style="fill:#616161;" d="M216.951,105.142v4.64h3.644v2.596h-3.644v11.68c0,0.901,0.187,1.536,0.56,1.903
						c0.374,0.368,0.868,0.551,1.485,0.551c0.201,0,0.423-0.024,0.667-0.071c0.243-0.048,0.459-0.107,0.649-0.178l0.462,2.4
						c-0.261,0.213-0.643,0.388-1.147,0.525c-0.504,0.136-1.011,0.204-1.52,0.204c-1.422,0-2.554-0.429-3.396-1.289
						c-0.841-0.859-1.262-2.207-1.262-4.045v-11.68h-3.058v-2.596h3.058v-4.64H216.951z"/>
					<path style="fill:#616161;" d="M234.906,123.898c0-0.77-0.293-1.405-0.88-1.903c-0.586-0.498-1.697-0.93-3.333-1.297
						c-2.335-0.509-4.092-1.198-5.272-2.068c-1.179-0.87-1.768-2.056-1.768-3.559c0-1.562,0.663-2.893,1.991-3.994
						c1.327-1.101,3.058-1.651,5.191-1.651c2.239,0,4.021,0.575,5.342,1.725c1.321,1.15,1.952,2.548,1.893,4.195l-0.036,0.107
						h-3.342c0-0.841-0.353-1.597-1.058-2.266c-0.705-0.67-1.638-1.005-2.8-1.005c-1.245,0-2.17,0.273-2.773,0.818
						c-0.605,0.545-0.907,1.203-0.907,1.973c0,0.759,0.267,1.357,0.8,1.796c0.534,0.438,1.618,0.829,3.254,1.173
						c2.429,0.522,4.237,1.23,5.422,2.125c1.185,0.895,1.778,2.095,1.778,3.601c0,1.707-0.69,3.087-2.071,4.142
						c-1.381,1.055-3.185,1.582-5.413,1.582c-2.453,0-4.386-0.622-5.796-1.866c-1.411-1.244-2.08-2.696-2.009-4.355l0.036-0.107
						h3.342c0.059,1.238,0.521,2.144,1.386,2.716c0.865,0.572,1.878,0.858,3.04,0.858c1.244,0,2.219-0.252,2.924-0.755
						C234.554,125.376,234.906,124.716,234.906,123.898z"/>
				</g>
				<g>
					<g>
						<path style="fill:#616161;" d="M135.735,97.769c-2.641,0-4.035-2.061-4.035-3.92c0-2.177,1.76-4.037,4.285-4.037
							c2.443,0,3.955,1.911,3.955,3.92C139.94,95.691,138.445,97.769,135.735,97.769z M137.822,96.391
							c0.4-0.526,0.496-1.181,0.496-1.828c0-1.45-0.695-4.214-2.746-4.214c-0.547,0-1.092,0.213-1.49,0.559
							c-0.646,0.575-0.762,1.299-0.762,2.008c0,1.632,0.811,4.316,2.811,4.316C136.78,97.232,137.441,96.92,137.822,96.391z"/>
						<path style="fill:#616161;" d="M158.26,86.63h-1.033l0.688-0.688h2.719l-0.595,0.594c-0.079,0.079-0.127,0.193-0.127,0.313
							v9.666c0,0.237,0.171,0.43,0.402,0.458l0.906,0.107l-0.496,0.495h-3.187l0.595-0.594c0.079-0.079,0.128-0.193,0.128-0.313
							V86.63z"/>
						<path style="fill:#616161;" d="M166.176,96.905c-1.468,0-2.825-1.054-3.31-2.939l5.076-2.054
							c-0.272-0.981-1.042-2.1-3.045-2.1c-1.65,0-3.667,1.258-3.667,3.821c0,2.02,1.325,4.136,3.923,4.136
							c0.534,0,1.369-0.034,2.221-0.645c0.323-0.226,0.595-0.488,0.822-0.787C167.629,96.618,167.028,96.905,166.176,96.905z
							 M164.591,90.348c0.91,0,1.668,0.755,1.668,1.422c0,0.234-0.168,0.334-0.488,0.451l-3.035,1.232
							C162.264,90.943,163.902,90.348,164.591,90.348z"/>
						<path style="fill:#616161;" d="M144.821,97.769c-2.641,0-4.035-2.061-4.035-3.92c0-2.177,1.76-4.037,4.285-4.037
							c2.443,0,3.955,1.911,3.955,3.92C149.026,95.691,147.532,97.769,144.821,97.769z M146.909,96.391
							c0.4-0.526,0.496-1.181,0.496-1.828c0-1.45-0.695-4.214-2.746-4.214c-0.547,0-1.092,0.213-1.49,0.559
							c-0.646,0.575-0.762,1.299-0.762,2.008c0,1.632,0.811,4.316,2.811,4.316C145.866,97.232,146.528,96.92,146.909,96.391z"/>
						<path style="fill:#616161;" d="M155.626,97.067l-0.604-0.468c-0.183-0.151-0.435-0.351-0.435-0.719
							c0-0.371,0.252-0.654,0.467-0.821c0.721-0.56,1.403-1.157,1.403-2.393c0-1.154-0.706-1.815-1.125-2.18h0.939l0.675-0.674
							h-3.384c-2.406,0-3.623,1.492-3.623,3.153c0,1.285,0.97,2.671,2.731,2.671c0.141,0,0.47,0,0.47,0
							c-0.064,0.178-0.103,0.364-0.103,0.598c0,0.518,0.225,0.781,0.48,1.068c-0.754,0.05-2.161,0.203-3.199,0.838
							c-0.99,0.589-1.273,1.441-1.273,2.043c0,1.241,1.159,2.406,3.586,2.406c2.882,0,4.385-1.601,4.385-3.174
							C157.014,98.252,156.362,97.687,155.626,97.067z M153.455,95.125c-1.355,0-2.092-1.687-2.092-2.971
							c0-1.219,0.721-1.772,1.475-1.772c1.451,0,2.201,1.903,2.201,3.053C155.039,94.854,153.904,95.125,153.455,95.125z
							 M153.447,101.861c-1.801,0-2.965-0.861-2.965-2.057c0-1.193,1.077-1.597,1.448-1.732c0.707-0.236,1.616-0.255,1.77-0.255
							c0.166,0,0.25,0,0.384,0.014c1.282,0.916,1.836,1.352,1.836,2.211C155.92,101,155.06,101.861,153.447,101.861z"/>
						<path style="fill:#616161;" d="M130.313,97.225c-0.786,0.217-2.616,0.744-5.025,0.744c-3.435,0-6.453-2.188-6.453-6.25
							c0-2.825,2.336-6.03,6.717-6.03c0.906,0,1.788,0.101,2.537,0.32c1.158,0.341,1.807,0.761,2.178,1.016l-1.605,1.604v-0.964
							c-0.64-0.535-1.464-1.329-3.476-1.329c-2.612,0-4.527,2.021-4.527,4.912c0,3.17,2.332,5.991,5.533,5.991
							c1.189,0,1.982-0.167,2.47-0.327l0-2.916h-2.134l0.688-0.688h3.82l-0.595,0.594c-0.079,0.079-0.127,0.193-0.127,0.313V97.225z
							"/>
					</g>
					<g>
						<g>
							<path style="fill:#616161;" d="M172.244,97.667v-10.56h2.937c0.658,0,1.263,0.114,1.817,0.341
								c0.554,0.227,1.029,0.55,1.425,0.968c0.396,0.418,0.706,0.924,0.928,1.516c0.222,0.592,0.334,1.251,0.334,1.976v0.965
								c0,0.725-0.111,1.384-0.334,1.976c-0.222,0.592-0.534,1.096-0.936,1.512c-0.401,0.416-0.882,0.737-1.443,0.965
								c-0.561,0.227-1.18,0.341-1.857,0.341H172.244z M173.114,87.846v9.088h2.002c0.571,0,1.085-0.099,1.545-0.297
								c0.459-0.198,0.85-0.475,1.171-0.83c0.321-0.355,0.568-0.782,0.74-1.28c0.172-0.498,0.257-1.049,0.257-1.654v-0.986
								c0-0.614-0.087-1.169-0.261-1.664c-0.174-0.496-0.421-0.92-0.74-1.273c-0.319-0.353-0.702-0.625-1.15-0.816
								c-0.447-0.191-0.946-0.286-1.498-0.286H173.114z"/>
							<path style="fill:#616161;" d="M184.345,97.812c-0.513,0-0.984-0.095-1.414-0.286c-0.43-0.191-0.801-0.457-1.113-0.798
								c-0.312-0.341-0.555-0.746-0.729-1.215c-0.174-0.469-0.261-0.984-0.261-1.545v-0.312c0-0.604,0.091-1.152,0.272-1.643
								c0.181-0.491,0.427-0.909,0.736-1.255c0.309-0.346,0.666-0.613,1.07-0.801c0.404-0.189,0.83-0.283,1.28-0.283
								c0.498,0,0.94,0.089,1.327,0.268c0.387,0.179,0.712,0.428,0.976,0.747c0.263,0.319,0.463,0.699,0.598,1.139
								c0.135,0.44,0.203,0.921,0.203,1.443v0.529h-5.599v0.167c0,0.43,0.065,0.835,0.196,1.215c0.13,0.38,0.314,0.711,0.551,0.994
								c0.237,0.283,0.52,0.505,0.849,0.667c0.329,0.162,0.694,0.243,1.095,0.243c0.464,0,0.874-0.086,1.229-0.257
								c0.355-0.172,0.678-0.444,0.968-0.816l0.544,0.413c-0.131,0.189-0.282,0.368-0.453,0.537
								c-0.172,0.169-0.371,0.317-0.598,0.442c-0.227,0.126-0.484,0.225-0.769,0.297C185.017,97.775,184.698,97.812,184.345,97.812z
								 M184.185,90.414c-0.329,0-0.634,0.063-0.914,0.189c-0.281,0.126-0.528,0.305-0.743,0.537
								c-0.215,0.232-0.392,0.511-0.529,0.838c-0.138,0.326-0.231,0.688-0.279,1.084h4.707v-0.094
								c-0.01-0.329-0.063-0.647-0.16-0.954c-0.097-0.307-0.238-0.579-0.424-0.816c-0.186-0.237-0.417-0.427-0.693-0.569
								C184.874,90.485,184.553,90.414,184.185,90.414z"/>
							<path style="fill:#616161;" d="M190.601,95.665l0.276,0.994l0.29-0.994l2.096-5.846h0.892l-2.93,7.847h-0.696l-2.945-7.847
								h0.892L190.601,95.665z"/>
							<path style="fill:#616161;" d="M198.082,97.812c-0.513,0-0.984-0.095-1.414-0.286c-0.43-0.191-0.801-0.457-1.113-0.798
								c-0.312-0.341-0.555-0.746-0.729-1.215c-0.174-0.469-0.261-0.984-0.261-1.545v-0.312c0-0.604,0.091-1.152,0.272-1.643
								c0.181-0.491,0.427-0.909,0.736-1.255c0.309-0.346,0.666-0.613,1.07-0.801c0.404-0.189,0.83-0.283,1.28-0.283
								c0.498,0,0.94,0.089,1.327,0.268c0.387,0.179,0.712,0.428,0.976,0.747c0.263,0.319,0.463,0.699,0.598,1.139
								c0.135,0.44,0.203,0.921,0.203,1.443v0.529h-5.599v0.167c0,0.43,0.065,0.835,0.196,1.215c0.13,0.38,0.314,0.711,0.551,0.994
								c0.237,0.283,0.52,0.505,0.849,0.667c0.329,0.162,0.694,0.243,1.095,0.243c0.464,0,0.874-0.086,1.229-0.257
								c0.355-0.172,0.678-0.444,0.968-0.816l0.544,0.413c-0.131,0.189-0.282,0.368-0.453,0.537
								c-0.172,0.169-0.371,0.317-0.598,0.442c-0.227,0.126-0.484,0.225-0.769,0.297C198.754,97.775,198.435,97.812,198.082,97.812z
								 M197.923,90.414c-0.329,0-0.634,0.063-0.914,0.189c-0.281,0.126-0.528,0.305-0.743,0.537
								c-0.215,0.232-0.392,0.511-0.529,0.838c-0.138,0.326-0.231,0.688-0.279,1.084h4.707v-0.094
								c-0.01-0.329-0.063-0.647-0.16-0.954c-0.097-0.307-0.238-0.579-0.424-0.816c-0.186-0.237-0.417-0.427-0.693-0.569
								C198.612,90.485,198.29,90.414,197.923,90.414z"/>
							<path style="fill:#616161;" d="M203.243,97.667h-0.87v-11.14h0.87V97.667z"/>
							<path style="fill:#616161;" d="M204.676,93.627c0-0.57,0.083-1.098,0.25-1.581c0.167-0.483,0.403-0.9,0.707-1.251
								c0.305-0.35,0.672-0.625,1.102-0.823c0.43-0.198,0.909-0.297,1.436-0.297c0.537,0,1.021,0.099,1.454,0.297
								c0.433,0.198,0.801,0.473,1.106,0.823c0.305,0.351,0.539,0.768,0.703,1.251c0.164,0.484,0.247,1.011,0.247,1.581v0.239
								c0,0.571-0.082,1.098-0.247,1.581c-0.164,0.484-0.399,0.901-0.703,1.251c-0.305,0.351-0.672,0.624-1.102,0.819
								s-0.911,0.294-1.443,0.294c-0.532,0-1.013-0.098-1.443-0.294c-0.43-0.196-0.799-0.469-1.106-0.819
								c-0.307-0.351-0.544-0.768-0.711-1.251c-0.167-0.483-0.25-1.011-0.25-1.581V93.627z M205.546,93.866
								c0,0.43,0.058,0.84,0.174,1.229c0.116,0.389,0.285,0.73,0.508,1.023c0.222,0.293,0.498,0.526,0.827,0.7
								c0.329,0.174,0.706,0.261,1.131,0.261c0.425,0,0.801-0.087,1.128-0.261c0.326-0.174,0.601-0.407,0.823-0.7
								c0.222-0.292,0.392-0.633,0.508-1.023c0.116-0.389,0.174-0.799,0.174-1.229v-0.239c0-0.421-0.058-0.826-0.174-1.215
								c-0.116-0.389-0.285-0.731-0.508-1.026c-0.222-0.295-0.499-0.531-0.83-0.707c-0.331-0.176-0.71-0.265-1.135-0.265
								c-0.421,0-0.794,0.088-1.12,0.265c-0.326,0.177-0.601,0.412-0.823,0.707c-0.222,0.295-0.392,0.637-0.508,1.026
								c-0.116,0.389-0.174,0.794-0.174,1.215V93.866z"/>
							<path style="fill:#616161;" d="M219.337,93.823c0,0.59-0.067,1.129-0.199,1.617c-0.133,0.488-0.328,0.908-0.584,1.258
								c-0.256,0.351-0.569,0.624-0.939,0.819c-0.37,0.196-0.792,0.294-1.266,0.294c-0.561,0-1.046-0.1-1.454-0.301
								c-0.409-0.201-0.746-0.477-1.012-0.83v4.003h-0.863V89.819h0.805l0.044,1.11c0.266-0.392,0.602-0.699,1.008-0.921
								c0.406-0.222,0.89-0.334,1.451-0.334c0.479,0,0.905,0.094,1.28,0.283c0.375,0.189,0.69,0.457,0.946,0.805
								c0.256,0.348,0.451,0.768,0.584,1.258c0.133,0.491,0.199,1.041,0.199,1.65V93.823z M218.467,93.67
								c0-0.454-0.047-0.88-0.141-1.276c-0.094-0.396-0.237-0.74-0.428-1.03c-0.191-0.29-0.434-0.519-0.729-0.685
								c-0.295-0.167-0.641-0.25-1.037-0.25c-0.314,0-0.592,0.041-0.834,0.123c-0.242,0.082-0.453,0.192-0.635,0.33
								c-0.181,0.138-0.336,0.297-0.464,0.479c-0.128,0.181-0.233,0.371-0.316,0.569v3.764c0.092,0.198,0.207,0.382,0.345,0.551
								c0.138,0.169,0.3,0.315,0.486,0.439c0.186,0.123,0.398,0.22,0.635,0.29c0.237,0.07,0.503,0.105,0.798,0.105
								c0.396,0,0.74-0.083,1.03-0.25c0.29-0.167,0.531-0.396,0.722-0.689c0.191-0.292,0.334-0.637,0.428-1.033
								c0.094-0.396,0.141-0.824,0.141-1.284V93.67z"/>
							<path style="fill:#616161;" d="M223.853,97.812c-0.513,0-0.984-0.095-1.414-0.286c-0.43-0.191-0.801-0.457-1.113-0.798
								c-0.312-0.341-0.555-0.746-0.729-1.215c-0.174-0.469-0.261-0.984-0.261-1.545v-0.312c0-0.604,0.091-1.152,0.272-1.643
								c0.181-0.491,0.427-0.909,0.736-1.255c0.309-0.346,0.666-0.613,1.07-0.801c0.404-0.189,0.83-0.283,1.28-0.283
								c0.498,0,0.94,0.089,1.327,0.268c0.387,0.179,0.712,0.428,0.976,0.747c0.263,0.319,0.463,0.699,0.598,1.139
								c0.135,0.44,0.203,0.921,0.203,1.443v0.529h-5.599v0.167c0,0.43,0.065,0.835,0.196,1.215c0.13,0.38,0.314,0.711,0.551,0.994
								c0.237,0.283,0.52,0.505,0.849,0.667c0.329,0.162,0.694,0.243,1.095,0.243c0.464,0,0.874-0.086,1.229-0.257
								c0.355-0.172,0.678-0.444,0.968-0.816l0.544,0.413c-0.131,0.189-0.282,0.368-0.453,0.537
								c-0.172,0.169-0.371,0.317-0.598,0.442c-0.227,0.126-0.484,0.225-0.769,0.297C224.525,97.775,224.206,97.812,223.853,97.812z
								 M223.693,90.414c-0.329,0-0.634,0.063-0.914,0.189c-0.281,0.126-0.528,0.305-0.743,0.537
								c-0.215,0.232-0.392,0.511-0.529,0.838c-0.138,0.326-0.231,0.688-0.279,1.084h4.707v-0.094
								c-0.01-0.329-0.063-0.647-0.16-0.954c-0.097-0.307-0.238-0.579-0.424-0.816c-0.186-0.237-0.417-0.427-0.693-0.569
								C224.382,90.485,224.06,90.414,223.693,90.414z"/>
							<path style="fill:#616161;" d="M231.668,90.559c-0.184-0.034-0.38-0.051-0.587-0.051c-0.295,0-0.561,0.044-0.798,0.131
								c-0.237,0.087-0.446,0.209-0.627,0.366c-0.181,0.157-0.334,0.343-0.457,0.558c-0.123,0.215-0.221,0.453-0.294,0.714v5.389
								h-0.863v-7.847h0.849l0.014,1.247c0.213-0.43,0.502-0.77,0.867-1.019c0.365-0.249,0.813-0.373,1.345-0.373
								c0.106,0,0.215,0.01,0.326,0.029c0.111,0.019,0.193,0.041,0.247,0.065L231.668,90.559z"/>
							<path style="fill:#616161;" d="M237.307,95.672c0-0.164-0.029-0.324-0.087-0.479c-0.058-0.155-0.164-0.303-0.319-0.446
								c-0.155-0.143-0.366-0.274-0.635-0.395c-0.268-0.121-0.615-0.227-1.041-0.319c-0.445-0.097-0.838-0.207-1.179-0.33
								c-0.341-0.123-0.629-0.272-0.863-0.446c-0.234-0.174-0.412-0.378-0.533-0.613c-0.121-0.234-0.181-0.511-0.181-0.83
								c0-0.29,0.064-0.566,0.192-0.827c0.128-0.261,0.312-0.488,0.551-0.682c0.239-0.193,0.529-0.347,0.87-0.46
								c0.341-0.114,0.724-0.17,1.15-0.17c0.454,0,0.862,0.059,1.222,0.178c0.36,0.119,0.665,0.283,0.914,0.493
								c0.249,0.21,0.439,0.458,0.569,0.743c0.131,0.285,0.196,0.595,0.196,0.928h-0.87c0-0.203-0.045-0.401-0.134-0.595
								c-0.09-0.193-0.22-0.364-0.392-0.511c-0.172-0.147-0.384-0.267-0.638-0.359c-0.254-0.092-0.543-0.138-0.867-0.138
								c-0.339,0-0.627,0.041-0.867,0.123c-0.239,0.082-0.435,0.189-0.587,0.319c-0.152,0.131-0.265,0.277-0.337,0.439
								c-0.073,0.162-0.109,0.325-0.109,0.49c0,0.16,0.024,0.311,0.073,0.453c0.048,0.143,0.146,0.277,0.294,0.403
								c0.147,0.126,0.355,0.244,0.624,0.355c0.268,0.111,0.622,0.215,1.063,0.312c0.44,0.097,0.833,0.212,1.179,0.345
								c0.346,0.133,0.638,0.291,0.878,0.475c0.239,0.184,0.422,0.399,0.548,0.645c0.126,0.247,0.189,0.532,0.189,0.856
								c0,0.324-0.069,0.62-0.207,0.888c-0.138,0.268-0.333,0.498-0.584,0.689c-0.251,0.191-0.555,0.34-0.91,0.446
								c-0.355,0.106-0.753,0.16-1.193,0.16c-0.498,0-0.938-0.064-1.32-0.192c-0.382-0.128-0.704-0.301-0.965-0.519
								c-0.261-0.218-0.458-0.468-0.591-0.751c-0.133-0.283-0.199-0.577-0.199-0.881h0.87c0.019,0.309,0.098,0.567,0.236,0.772
								c0.138,0.206,0.312,0.37,0.522,0.493c0.21,0.123,0.442,0.212,0.696,0.265c0.254,0.053,0.504,0.08,0.751,0.08
								c0.329,0,0.619-0.039,0.87-0.116c0.251-0.077,0.463-0.181,0.635-0.312c0.172-0.13,0.301-0.28,0.388-0.45
								C237.264,96.032,237.307,95.856,237.307,95.672z"/>
						</g>
					</g>
				</g>
			</g>
			<linearGradient id="SVGID_6_" gradientUnits="userSpaceOnUse" x1="93.8854" y1="127.0186" x2="91.3978" y2="125.4031">
				<stop  offset="0" style="stop-color:#000000;stop-opacity:0"/>
				<stop  offset="1" style="stop-color:#000000;stop-opacity:0.2"/>
			</linearGradient>
			<polygon style="fill:url(#SVGID_6_);" points="96.645,122.388 90.233,132.643 88.71,130.154 95.05,119.779 			"/>
		</g>
		<polygon style="opacity:0.15;" points="73.023,104.781 80.894,96.91 74.554,107.285 		"/>
	</g>
</g>
<g>
	<g>
		<path style="fill:#FFFFFF;" d="M63.074,195.175v0.021l0.011-0.054l3.126-11.44h2.084l3.158,11.473l0.011,0.075l0.011-0.107
			l2.471-11.44h2.567l-3.717,15.641h-2.374l-3.126-11.226h-0.064l-3.137,11.226H61.71l-3.706-15.641h2.567L63.074,195.175z"/>
		<path style="fill:#FFFFFF;" d="M83.264,199.568c-1.647,0-2.959-0.538-3.938-1.616c-0.977-1.078-1.466-2.462-1.466-4.152v-0.43
			c0-1.689,0.485-3.092,1.456-4.205c0.97-1.113,2.186-1.667,3.646-1.66c1.568,0,2.77,0.475,3.604,1.424
			c0.835,0.949,1.252,2.222,1.252,3.818v1.536h-7.251l-0.021,0.054c0.043,0.921,0.313,1.674,0.812,2.259
			c0.497,0.586,1.187,0.878,2.067,0.878c0.702,0,1.304-0.086,1.805-0.258s0.984-0.419,1.45-0.741l0.838,1.712
			c-0.437,0.389-1.017,0.717-1.74,0.982C85.054,199.436,84.216,199.568,83.264,199.568z M82.963,189.6
			c-0.645,0-1.175,0.257-1.59,0.769s-0.673,1.162-0.773,1.949l0.021,0.054h4.608v-0.269c0-0.737-0.188-1.339-0.563-1.805
			C84.289,189.833,83.722,189.6,82.963,189.6z"/>
		<path style="fill:#FFFFFF;" d="M100.35,193.918c0,1.697-0.396,3.063-1.188,4.099c-0.791,1.035-1.906,1.552-3.346,1.552
			c-0.724,0-1.352-0.146-1.885-0.44c-0.534-0.293-0.979-0.723-1.338-1.289l-0.258,1.504h-2.191v-16.758h2.61v6.456
			c0.358-0.494,0.788-0.873,1.289-1.139c0.501-0.265,1.085-0.397,1.751-0.397c1.454,0,2.576,0.566,3.367,1.697
			c0.792,1.132,1.188,2.629,1.188,4.49V193.918z M97.739,193.692c0-1.21-0.208-2.188-0.623-2.933
			c-0.415-0.744-1.074-1.117-1.977-1.117c-0.58,0-1.065,0.129-1.456,0.387c-0.39,0.258-0.699,0.616-0.929,1.074v4.877
			c0.222,0.466,0.53,0.826,0.924,1.08s0.888,0.381,1.482,0.381c0.902,0,1.558-0.316,1.966-0.95s0.612-1.491,0.612-2.573V193.692z"/>
		<path style="fill:#FFFFFF;" d="M119.545,185.797h-4.727v13.546h-2.61v-13.546h-4.727v-2.095h12.063V185.797z"/>
		<path style="fill:#FFFFFF;" d="M125.426,199.568c-1.647,0-2.959-0.538-3.938-1.616c-0.977-1.078-1.466-2.462-1.466-4.152v-0.43
			c0-1.689,0.485-3.092,1.456-4.205c0.97-1.113,2.186-1.667,3.646-1.66c1.568,0,2.77,0.475,3.604,1.424
			c0.835,0.949,1.252,2.222,1.252,3.818v1.536h-7.251l-0.021,0.054c0.043,0.921,0.313,1.674,0.812,2.259
			c0.497,0.586,1.187,0.878,2.067,0.878c0.702,0,1.304-0.086,1.805-0.258s0.984-0.419,1.45-0.741l0.838,1.712
			c-0.437,0.389-1.017,0.717-1.74,0.982C127.216,199.436,126.378,199.568,125.426,199.568z M125.125,189.6
			c-0.645,0-1.175,0.257-1.59,0.769s-0.673,1.162-0.773,1.949l0.021,0.054h4.608v-0.269c0-0.737-0.188-1.339-0.563-1.805
			C126.451,189.833,125.884,189.6,125.125,189.6z"/>
		<path style="fill:#FFFFFF;" d="M137.108,197.474c0.638,0,1.175-0.187,1.611-0.561s0.655-0.842,0.655-1.405h2.363l0.021,0.064
			c0.036,1.089-0.406,2.027-1.326,2.814c-0.921,0.788-2.029,1.182-3.325,1.182c-1.712,0-3.024-0.551-3.937-1.654
			c-0.914-1.103-1.37-2.499-1.37-4.189v-0.376c0-1.683,0.456-3.077,1.37-4.184c0.912-1.106,2.225-1.66,3.937-1.66
			c1.396,0,2.53,0.407,3.399,1.22c0.871,0.812,1.291,1.846,1.263,3.099l-0.021,0.064h-2.374c0-0.637-0.209-1.178-0.629-1.622
			c-0.418-0.443-0.965-0.666-1.638-0.666c-0.981,0-1.676,0.356-2.084,1.067c-0.408,0.712-0.612,1.604-0.612,2.677v0.376
			c0,1.094,0.204,1.993,0.612,2.697C135.433,197.122,136.127,197.474,137.108,197.474z"/>
		<path style="fill:#FFFFFF;" d="M146.652,189.224c0.387-0.544,0.857-0.967,1.412-1.268c0.556-0.301,1.17-0.451,1.843-0.451
			c1.231,0,2.193,0.389,2.884,1.166c0.691,0.777,1.037,1.975,1.037,3.593v7.079h-2.61v-7.101c0-0.916-0.183-1.579-0.548-1.987
			s-0.913-0.612-1.644-0.612c-0.509,0-0.965,0.106-1.37,0.317c-0.404,0.211-0.739,0.503-1.004,0.875v8.508h-2.61v-16.758h2.61
			V189.224z"/>
		<path style="fill:#FFFFFF;" d="M159.118,187.72l0.15,1.676c0.38-0.594,0.857-1.058,1.434-1.391c0.577-0.333,1.227-0.5,1.95-0.5
			c1.21,0,2.153,0.367,2.831,1.102c0.676,0.734,1.015,1.878,1.015,3.432v7.305h-2.61v-7.283c0-0.873-0.181-1.494-0.543-1.863
			c-0.361-0.369-0.911-0.554-1.648-0.554c-0.509,0-0.963,0.113-1.364,0.339s-0.73,0.535-0.988,0.929v8.433h-2.61V187.72H159.118z"/>
		<path style="fill:#FFFFFF;" d="M168.953,193.424c0-1.726,0.473-3.144,1.418-4.254c0.96-1.109,2.26-1.665,3.899-1.665
			c1.669,0,2.976,0.556,3.921,1.665c0.952,1.104,1.429,2.521,1.429,4.254v0.226c0,1.748-0.477,3.173-1.429,4.275
			c-0.945,1.096-2.245,1.644-3.899,1.644c-1.661,0-2.969-0.551-3.921-1.654c-0.945-1.103-1.418-2.524-1.418-4.265V193.424z
			 M171.563,193.645c0,1.13,0.222,2.052,0.666,2.768c0.437,0.708,1.124,1.062,2.062,1.062c0.909,0,1.59-0.354,2.041-1.062
			c0.458-0.716,0.688-1.638,0.688-2.768v-0.226c0-1.108-0.229-2.021-0.688-2.735c-0.451-0.723-1.139-1.084-2.062-1.084
			c-0.909,0-1.59,0.361-2.041,1.084c-0.444,0.722-0.666,1.634-0.666,2.735V193.645z"/>
		<path style="fill:#FFFFFF;" d="M184.899,199.343h-2.61v-16.758h2.61V199.343z"/>
		<path style="fill:#FFFFFF;" d="M187.558,193.424c0-1.726,0.473-3.144,1.418-4.254c0.96-1.109,2.26-1.665,3.899-1.665
			c1.669,0,2.976,0.556,3.921,1.665c0.952,1.104,1.429,2.521,1.429,4.254v0.226c0,1.748-0.477,3.173-1.429,4.275
			c-0.945,1.096-2.245,1.644-3.899,1.644c-1.661,0-2.969-0.551-3.921-1.654c-0.945-1.103-1.418-2.524-1.418-4.265V193.424z
			 M190.168,193.645c0,1.13,0.222,2.052,0.666,2.768c0.437,0.708,1.124,1.062,2.062,1.062c0.909,0,1.59-0.354,2.041-1.062
			c0.458-0.716,0.688-1.638,0.688-2.768v-0.226c0-1.108-0.229-2.021-0.688-2.735c-0.451-0.723-1.139-1.084-2.062-1.084
			c-0.909,0-1.59,0.361-2.041,1.084c-0.444,0.722-0.666,1.634-0.666,2.735V193.645z"/>
		<path style="fill:#FFFFFF;" d="M200.249,193.692c0-1.848,0.404-3.341,1.214-4.479s1.934-1.708,3.373-1.708
			c0.694,0,1.306,0.149,1.831,0.446c0.527,0.297,0.973,0.725,1.338,1.283l0.258-1.515h2.17v11.623c0,1.497-0.462,2.653-1.386,3.47
			s-2.234,1.225-3.932,1.225c-0.565,0-1.177-0.08-1.831-0.241c-0.656-0.161-1.248-0.375-1.778-0.64l0.559-2.052
			c0.43,0.222,0.904,0.396,1.423,0.521c0.52,0.125,1.055,0.188,1.606,0.188c0.945,0,1.637-0.202,2.073-0.606
			c0.437-0.405,0.655-1.026,0.655-1.864v-1.192c-0.365,0.466-0.797,0.818-1.294,1.059c-0.498,0.239-1.069,0.359-1.714,0.359
			c-1.425,0-2.542-0.519-3.352-1.558c-0.81-1.038-1.214-2.402-1.214-4.093V193.692z M202.859,193.918
			c0,1.067,0.213,1.922,0.64,2.562c0.426,0.641,1.086,0.961,1.981,0.961c0.559,0,1.029-0.116,1.413-0.349
			c0.383-0.232,0.692-0.567,0.929-1.005v-5.092c-0.243-0.422-0.557-0.753-0.94-0.993c-0.383-0.24-0.843-0.36-1.38-0.36
			c-0.896,0-1.56,0.376-1.993,1.128c-0.433,0.752-0.649,1.727-0.649,2.922V193.918z"/>
		<path style="fill:#FFFFFF;" d="M216.186,184.873h-2.61v-2.288h2.61V184.873z M216.186,199.343h-2.61V187.72h2.61V199.343z"/>
		<path style="fill:#FFFFFF;" d="M224.312,199.568c-1.647,0-2.959-0.538-3.938-1.616c-0.977-1.078-1.466-2.462-1.466-4.152v-0.43
			c0-1.689,0.485-3.092,1.456-4.205c0.97-1.113,2.186-1.667,3.646-1.66c1.568,0,2.77,0.475,3.604,1.424
			c0.835,0.949,1.252,2.222,1.252,3.818v1.536h-7.251l-0.021,0.054c0.043,0.921,0.313,1.674,0.812,2.259
			c0.497,0.586,1.187,0.878,2.067,0.878c0.702,0,1.304-0.086,1.805-0.258s0.984-0.419,1.45-0.741l0.838,1.712
			c-0.437,0.389-1.017,0.717-1.74,0.982C226.102,199.436,225.264,199.568,224.312,199.568z M224.011,189.6
			c-0.645,0-1.175,0.257-1.59,0.769s-0.673,1.162-0.773,1.949l0.021,0.054h4.608v-0.269c0-0.737-0.188-1.339-0.563-1.805
			C225.337,189.833,224.77,189.6,224.011,189.6z"/>
		<path style="fill:#FFFFFF;" d="M237.723,196.185c0-0.4-0.172-0.733-0.516-0.999c-0.344-0.265-0.984-0.497-1.923-0.698
			c-1.39-0.293-2.44-0.71-3.153-1.251c-0.712-0.541-1.068-1.276-1.068-2.208c0-0.974,0.412-1.805,1.235-2.492
			s1.908-1.031,3.255-1.031c1.418,0,2.544,0.35,3.379,1.048c0.834,0.698,1.233,1.562,1.197,2.594l-0.021,0.064h-2.503
			c0-0.479-0.183-0.892-0.548-1.235s-0.866-0.516-1.504-0.516c-0.63,0-1.11,0.142-1.439,0.425s-0.494,0.628-0.494,1.036
			s0.156,0.732,0.467,0.973c0.312,0.24,0.944,0.453,1.896,0.639c1.461,0.301,2.544,0.726,3.25,1.273
			c0.705,0.548,1.058,1.294,1.058,2.239c0,1.046-0.432,1.895-1.294,2.546c-0.863,0.652-2,0.978-3.411,0.978
			c-1.511,0-2.703-0.387-3.577-1.16s-1.289-1.661-1.246-2.664l0.021-0.064h2.428c0.028,0.674,0.272,1.164,0.73,1.472
			c0.458,0.309,1.017,0.462,1.676,0.462c0.673,0,1.192-0.129,1.558-0.387S237.723,196.622,237.723,196.185z"/>
		<path style="fill:#FFFFFF;" d="M141.526,224.227c-0.415,0.595-1.098,1.134-2.047,1.617c-0.948,0.483-2.168,0.725-3.657,0.725
			c-1.884,0-3.434-0.596-4.651-1.788s-1.826-2.734-1.826-4.625v-3.266c0-1.891,0.574-3.432,1.725-4.624
			c1.148-1.192,2.633-1.789,4.452-1.789c1.841,0,3.271,0.453,4.292,1.359c1.02,0.906,1.541,2.086,1.562,3.539l-0.021,0.064h-2.471
			c-0.058-0.859-0.363-1.552-0.918-2.078c-0.556-0.526-1.359-0.79-2.412-0.79c-1.081,0-1.953,0.404-2.615,1.213
			c-0.663,0.809-0.994,1.835-0.994,3.08v3.284c0,1.26,0.359,2.295,1.08,3.107c0.719,0.812,1.652,1.218,2.798,1.218
			c0.816,0,1.479-0.095,1.987-0.283c0.509-0.189,0.877-0.413,1.106-0.67v-3.172h-3.104v-1.955h5.715V224.227z"/>
		<path style="fill:#FFFFFF;" d="M144.947,226.343v-15.641h5.07c1.983,0,3.597,0.62,4.839,1.858c1.243,1.239,1.864,2.833,1.864,4.78
			v2.374c0,1.955-0.621,3.549-1.864,4.78c-1.242,1.232-2.855,1.848-4.839,1.848H144.947z M147.558,212.797v11.451h2.385
			c1.296,0,2.314-0.422,3.057-1.267c0.74-0.844,1.111-1.935,1.111-3.272v-2.394c0-1.323-0.371-2.407-1.111-3.252
			c-0.742-0.844-1.761-1.267-3.057-1.267H147.558z"/>
		<path style="fill:#FFFFFF;" d="M169.08,219.307h-6.843v4.941h7.938v2.095h-10.549v-15.641h10.474v2.095h-7.863v4.415h6.843
			V219.307z"/>
	</g>
</g>
<g>
</g>
<g>
</g>
<g>
</g>
<g>
</g>
<g>
</g>
<g>
</g>
<g>
</g>
<g>
</g>
<g>
</g>
<g>
</g>
<g>
</g>
<g>
</g>
<g>
</g>
<g>
</g>
<g>
</g>
</svg>
